<?xml version="1.0" encoding="utf-8"?>
<!-- Generator: Adobe Illustrator 19.0.0, SVG Export Plug-In . SVG Version: 6.00 Build 0)  -->
<svg version="1.1" id="Objects" xmlns="http://www.w3.org/2000/svg" xmlns:xlink="http://www.w3.org/1999/xlink" x="0px" y="0px"
	 viewBox="-226 410 781.1 182" style="enable-background:new -226 410 781.1 182;" xml:space="preserve">
<style type="text/css">
	.st0{fill:url(#SVGID_1_);}
	.st1{opacity:0.2;}
	.st2{fill:#062A4D;}
	.st3{fill:url(#SVGID_2_);}
	.st4{fill:#FFFFFF;}
	.st5{opacity:0.7;}
	.st6{fill:#E8EEEF;}
</style>
<linearGradient id="SVGID_1_" gradientUnits="userSpaceOnUse" x1="-637.914" y1="771.084" x2="-505.6492" y2="771.084" gradientTransform="matrix(0.7071 -0.7071 -0.7071 -0.7071 792.9106 663.1315)">
	<stop  offset="0.3" style="stop-color:#D0DF56"/>
	<stop  offset="0.4005" style="stop-color:#BAD666"/>
	<stop  offset="0.608" style="stop-color:#83BF8E"/>
	<stop  offset="0.78" style="stop-color:#50AAB2"/>
	<stop  offset="1" style="stop-color:#50AAB2"/>
</linearGradient>
<path class="st0" d="M-201,475.4c-13.8,0-25,11.2-25,25c0,13.8,11.2,25,25,25h40.6V567c0,13.8,11.4,25,25.2,25
	c6.9,0,13.1-2.8,17.6-7.3s7.2-10.8,7.2-17.7v-91.6H-201z"/>
<g class="st1">
	<polygon class="st2" points="-160.2,525.7 -177.8,475.4 -110.4,475.4 -110.4,542 	"/>
</g>
<linearGradient id="SVGID_2_" gradientUnits="userSpaceOnUse" x1="-576.707" y1="771.0134" x2="-469.5085" y2="771.0134" gradientTransform="matrix(0.7071 -0.7071 -0.7071 -0.7071 792.9106 663.1315)">
	<stop  offset="0.3" style="stop-color:#D0DF56"/>
	<stop  offset="0.4005" style="stop-color:#BAD666"/>
	<stop  offset="0.608" style="stop-color:#83BF8E"/>
	<stop  offset="0.78" style="stop-color:#50AAB2"/>
	<stop  offset="1" style="stop-color:#50AAB2"/>
</linearGradient>
<path class="st3" d="M-110.4,475.4V435c0-13.8-11.2-25-25-25c-13.8,0-25,11.2-25,25v90.4H-69c6.9,0,13.2-2.5,17.7-7
	s7.3-10.9,7.3-17.8c0-13.8-11.2-25.1-25-25.1h-41.4V475.4z"/>
<path class="st4" d="M-5.6,482.9v-59.2l-7.2-0.9v-6.5H1.4c2.4,0,5.5-0.2,9.2-0.3c0.9,0,2.1-0.2,3.8-0.2s3.1-0.2,4.4-0.2
	c12,0,21,3.1,27,9.2c6.2,6.2,9.1,14.9,9.1,26.3c0,8-1.5,14.9-4.8,20.9c-3.1,6-7.5,10.6-13.2,13.7c-5.6,3.2-12.1,4.8-19.3,4.8
	c-1.5,0-3.9,0-7.2-0.2c-2.7-0.2-5.6-0.3-8.9-0.3h-14.7v-5.5L-5.6,482.9z M17.2,483.9c1.4,0,2.6,0,3.2-0.2c3.9-0.2,7.5-1.5,10.6-4.1
	c3.1-2.6,5.5-6,7.2-10.4s2.6-9.4,2.6-15.1c0-10.4-2.1-18.5-6.2-23.8c-4.1-5.5-9.9-8-17.4-8c-2.1,0-3.8,0.2-5.1,0.3
	c-1.4,0.2-2.6,0.5-3.9,0.9v59C10.5,483.4,13.6,483.9,17.2,483.9z"/>
<path class="st4" d="M68.5,483.5v-34.2l-6.7-4.4v-4.6l15.6-4.6l2.9,1v8.6c0.9-2.4,2.9-4.4,6-6.5c3.1-1.9,6-2.9,8.6-2.9
	s4.1,0.2,4.8,0.3V449c-1-0.5-2.2-1-3.8-1.5c-1.5-0.5-3.1-0.5-4.6-0.5c-3.8,0-6.8,0.9-9.2,2.4v33.9l12.1,1.5v5.3H61.8v-5.5
	L68.5,483.5z"/>
<path class="st4" d="M120.7,476.5c1.5,1.5,2.2,3.4,2.2,5.8c0,2.7-1,4.8-2.9,6.5c-2.1,1.7-4.3,2.6-6.8,2.6c-2.2,0-4.3-0.7-5.8-2.2
	c-1.7-1.5-2.6-3.4-2.6-5.6c0-1.5,0.5-3.2,1.5-4.6c1-1.5,2.2-2.6,3.8-3.4c1.5-0.9,3.1-1.2,4.6-1.2C117.1,474.1,119.3,475,120.7,476.5
	z"/>
<path class="st4" d="M195.2,416.3c2.7,0.5,5.6,1.2,8.7,1.9l2.1,0.5l-0.9,16.4h-7.7l-3.2-8.7c-1.4-1-2.9-1.9-4.6-2.6
	c-1.7-0.5-4.1-0.9-7.5-0.9c-4.1,0-7.9,1.2-11.1,3.6c-3.2,2.4-5.8,5.8-7.5,10.3c-1.7,4.3-2.7,9.4-2.7,15.1c0,5.8,0.9,11.1,2.6,16.1
	s4.3,8.9,7.7,12c3.4,3.1,7.5,4.6,12.3,4.6c6.7,0,10.9-1.5,13-4.8l3.4-8.2h6.5v15.6c-0.9,0-1.7,0.2-2.9,0.5c-1.2,0.3-1.9,0.7-2.2,0.7
	c-3.4,1-6.7,1.7-9.4,2.4c-2.9,0.5-6.2,0.9-10.1,0.9c-7,0-13.2-1.5-18.5-4.4c-5.5-2.9-9.6-7.2-12.7-12.7c-3.1-5.5-4.6-11.6-4.6-18.8
	c0-7.7,1.9-14.7,5.5-20.7c3.6-6.2,8.6-10.9,14.5-14.4c6.2-3.4,12.8-5.1,20.2-5.1C189.4,415.5,192.5,415.8,195.2,416.3z"/>
<path class="st4" d="M220.2,483.5v-60.7l-7.4-2.4v-5.6l18.3-2.2l2.6,1l-0.2,22.1l-0.5,6.7c2.6-2.2,5.3-3.8,8.6-5
	c3.2-1.2,6.3-1.7,9.2-1.7c4.3,0,7.7,1,9.9,2.9c2.2,1.9,3.9,4.6,4.6,8.2c0.9,3.6,1.2,8.2,1.2,14.2v22.7l6.7,1.2v5.1h-27.5v-5.3
	l7.5-1.2v-19.3c0-4.8-0.2-8.6-0.5-11.1c-0.3-2.6-1.2-4.6-2.6-6.2c-1.4-1.5-3.6-2.2-6.5-2.2c-1.9,0-3.6,0.2-5.1,0.5
	c-1.5,0.3-3.1,1.2-4.4,2.2v35.9l5.6,1.2v5.5h-26.2v-5.5L220.2,483.5z"/>
<path class="st4" d="M318.2,439.9c3.6,2.9,5.3,7.5,5.3,14.2l-0.2,30.4h6.2v4.3c-1.2,0.9-2.9,1.4-5,1.9c-2.1,0.5-4.1,0.7-5.8,0.7
	c-4.8,0-7.2-1.9-7.4-5.8c-3.6,3.8-8.4,5.8-14.5,5.8c-5.3,0-9.6-1.4-12.8-4.3c-3.2-2.7-4.8-6.3-4.8-10.8c0-4.3,1.5-7.9,4.6-10.8
	c3.1-2.9,7-5,11.6-6.2c4.8-1.4,9.6-1.9,14.5-1.9v-2.4c0-4.3-0.9-7.4-2.7-8.9c-1.9-1.7-4.6-2.6-8.6-2.6c-2.2,0-4.8,0.3-7.5,1
	c-2.7,0.7-5.1,1.5-7,2.7l-2.6-6c2.2-1.9,5.5-3.2,9.7-4.3c4.3-1,8.2-1.5,12-1.5C309.7,435.6,314.6,437,318.2,439.9z M297.8,466.4
	c-3.4,1.7-5.1,4.4-5.1,8c0,6,3.1,8.9,9.2,8.9c1.4,0,2.7-0.2,4.3-0.7c1.4-0.5,2.6-1.2,3.6-2.1l0.2-16.8
	C305.4,463.9,301.4,464.7,297.8,466.4z"/>
<path class="st4" d="M342,483.5v-34.2l-6.7-4.4v-4.6l15.6-4.6l3.1,1v6.8c2.4-2.2,5.5-4.1,9.2-5.6s7.2-2.2,10.6-2.2
	c5.6,0,9.6,1.7,11.8,5.3c2.2,3.6,3.4,9.1,3.4,16.6v26.2l7,1v5.3h-27.5v-5.5l6.8-1.2v-23.9c0-3.8-0.2-6.5-0.7-8.6
	c-0.5-2.1-1.4-3.6-2.7-4.4c-1.4-1-3.4-1.5-6.2-1.5c-1.4,0-3.1,0.3-5,0.9c-1.9,0.5-3.6,1.4-5,2.6v35.1l6.2,1.2v5.5h-26.2v-5.5
	L342,483.5z"/>
<path class="st4" d="M440.5,439.2c1.4-2.4,4.4-3.6,9.1-3.6h5v9.9h-9.4c0.9,1.9,1.2,4.3,1.2,7c0,6.2-2.2,10.9-6.5,14.2
	c-4.3,3.2-9.7,5-16.4,5c-3.8,0-6.8-0.3-9.2-1.2c-0.3,0.9-0.3,1.9-0.3,2.9c0,1,0,1.5,0,1.7c0,3.6,2.1,5.3,6.2,5.3
	c2.4,0.2,6.3,0.2,11.8,0.2c7.7,0,13.2,1.4,16.2,3.9c3.1,2.6,4.6,6.5,4.6,11.6c0,4.1-1.2,7.5-3.8,10.4c-2.4,2.9-5.8,5.1-10.1,6.5
	c-4.3,1.5-9.2,2.2-14.5,2.2c-7,0-12.7-1-17.1-3.2c-4.4-2.2-6.7-5.8-6.7-10.8c0-2.7,0.9-5.1,2.4-7.4s3.4-4.1,5.6-5.5
	c-2.4-0.9-3.8-1.9-4.4-3.2c-0.7-1.4-1-3.1-1-5.5c0-1.4,0.7-3.2,1.9-5.5s2.7-4.1,4.4-5.5c-5.6-3.2-8.4-8-8.4-14.5
	c0-4.1,1.2-7.7,3.4-10.6c2.2-2.9,5.1-5,8.9-6.5c3.8-1.4,7.7-2.2,12.1-2.2C431.9,435.1,436.9,436.5,440.5,439.2z M412.8,497
	c0,3.8,1.2,6.7,3.8,8.6c2.6,1.9,5.8,2.9,10.1,2.9c4.8,0,8.4-0.7,10.8-2.2c2.4-1.4,3.6-3.8,3.6-7.2c0-2.4-0.3-4.1-1-5.5
	c-0.7-1.4-1.9-2.2-3.6-2.9c-1.7-0.7-4.3-0.9-7.4-0.9h-6.8c-3.2,0-5.6-0.2-7.5-0.3C413.3,491.6,412.8,494,412.8,497z M416.9,443.7
	c-1.7,1.7-2.4,4.3-2.4,7.7c0,4.3,0.9,7.5,2.4,10.1s4.3,3.8,7.9,3.8c3.2,0,5.5-1,6.8-3.1s2.1-5,2.1-8.7c0-8.2-3.4-12.3-10.1-12.3
	C420.8,441.1,418.6,442,416.9,443.7z"/>
<path class="st4" d="M499.7,440.4c3.4,3.4,5.3,8.4,5.6,14.7c0,2.2,0,4.3-0.2,6.2c-0.2,1.9-0.3,3.1-0.5,3.6h-33.9
	c0.3,5.8,1.9,10.3,4.6,13.3c2.9,3.1,6.8,4.8,12,4.8c2.4,0,4.8-0.2,7.5-0.7c2.6-0.5,5-1.2,6.8-2.1l2.2,5.1c-2.2,1.9-5.3,3.4-9.2,4.4
	c-3.9,1-7.9,1.7-11.6,1.7c-8.4,0-14.7-2.4-19.3-7.2c-4.4-4.8-6.8-11.5-6.8-19.8c0-5.6,1.2-10.6,3.6-14.9c2.4-4.4,5.8-7.9,10.1-10.3
	c4.3-2.4,9.2-3.8,14.5-3.8C491.5,435.3,496.3,437,499.7,440.4z M474.5,445.7c-2.1,2.9-3.2,6.8-3.8,12.1h20.7
	c0.2-1.5,0.2-2.7,0.2-3.6c0-3.8-0.7-6.5-2.2-8.2c-1-3.1-3.4-4.6-7-4.6C479.3,441.5,476.8,442.8,474.5,445.7z"/>
<path class="st4" d="M520.4,475.2l2.6,5.5c1.9,1.7,3.4,2.7,4.8,3.6c1.4,0.7,3.1,1,5.3,1c2.9,0,5.1-0.7,6.8-1.9s2.6-3.1,2.6-5.3
	c0-1.7-0.9-3.2-2.6-4.4c-1.5-1.2-4.1-2.6-7.7-4.3l-2.6-1.2c-5.1-2.4-9.1-5-11.8-7.7c-2.7-2.7-4.1-6.2-4.1-10.3c0-3.2,1-6,3.1-8.2
	s4.8-3.9,7.9-5.1c3.2-1.2,6.5-1.7,9.9-1.7c2.9,0,6,0.2,9.2,0.9c3.2,0.5,5.8,1.4,7.7,2.2V450h-6.3l-2.4-5.5c-1.9-2.4-4.4-3.8-7.4-3.8
	c-2.6,0-4.6,0.5-6.2,1.5c-1.5,1-2.4,2.6-2.4,4.6c0,1.7,0.5,3.1,1.7,4.3c1,1.2,2.4,2.2,4.1,3.2c1.5,0.9,4.1,2.2,7.5,3.9
	c3.2,1.5,6,2.9,8,4.3c2.1,1.2,3.8,2.9,5,4.8c1.4,1.9,1.9,4.3,1.9,7c0,5.6-2.2,9.9-6.5,12.7c-4.4,2.9-9.9,4.3-16.8,4.3
	c-3.1,0-6.3-0.3-9.6-1.2c-3.2-0.7-6-1.7-8.4-3.1v-12C513.9,475.2,520.4,475.2,520.4,475.2z"/>
<g class="st5">
	<path class="st6" d="M16.3,580.4H8.5v-17.8H-5.2v17.8h-7.9v-42.1h7.9V556H8.5v-17.6h7.9V580.4z"/>
	<path class="st6" d="M46.9,538.4v7.5H33.3v9.7h10.6v7.2H33.3v10.1h13.9v7.5H25.4v-42.1L46.9,538.4L46.9,538.4z"/>
	<path class="st6" d="M86.3,580.4h-6c-0.7,0-1.2-0.2-1.7-0.5c-0.5-0.3-0.7-0.9-0.9-1.5l-2.1-7.4H62.8l-2.1,7.4
		c-0.2,0.5-0.5,1-0.9,1.5c-0.5,0.5-1,0.7-1.7,0.7h-6.2l13-42.1h8L86.3,580.4z M64.6,564.4h9.2l-3.1-11.5c-0.2-0.7-0.5-1.5-0.7-2.6
		c-0.3-1-0.5-2.1-0.9-3.2c-0.2,1.2-0.5,2.2-0.7,3.2c-0.3,1-0.5,1.9-0.7,2.6L64.6,564.4z"/>
	<path class="st6" d="M100.1,572.7h12.5v7.9H92.3v-42.1h7.9V572.7z"/>
	<path class="st6" d="M140.2,538.4v7.7h-9.4v34.4h-7.9v-34.4h-9.4v-7.7H140.2z"/>
	<path class="st6" d="M176.2,580.4h-7.9v-17.8h-13.7v17.8h-7.9v-42.1h7.9V556h13.7v-17.6h7.9V580.4z"/>
	<path class="st6" d="M228.9,580.4h-6c-0.7,0-1.2-0.2-1.7-0.5c-0.5-0.3-0.7-0.9-0.9-1.5l-2.1-7.4h-12.8l-2.1,7.4
		c-0.2,0.5-0.5,1-0.9,1.5c-0.5,0.5-1,0.7-1.7,0.7h-6.2l13-42.1h8L228.9,580.4z M207.2,564.4h9.2l-3.1-11.5c-0.2-0.7-0.5-1.5-0.7-2.6
		c-0.3-1-0.5-2.1-0.9-3.2c-0.2,1.2-0.5,2.2-0.7,3.2c-0.3,1-0.5,1.9-0.7,2.6L207.2,564.4z"/>
	<path class="st6" d="M240,538.5c0.2,0,0.5,0.2,0.7,0.2c0.2,0.2,0.3,0.2,0.5,0.5c0.2,0.2,0.3,0.5,0.5,0.9l15.9,25.3
		c0-0.9-0.2-1.5-0.2-2.4s0-1.5,0-2.2v-22.2h6.8v42.1h-4.1c-0.7,0-1-0.2-1.5-0.3c-0.3-0.2-0.9-0.7-1.2-1.2l-15.9-25
		c0,0.7,0,1.4,0.2,2.2c0,0.7,0,1.4,0,2.1v22.6h-6.8v-42.1h4.1C239.5,538.4,239.9,538.4,240,538.5z"/>
	<path class="st6" d="M304,559.4c0,3.1-0.3,5.8-1.2,8.4c-0.9,2.6-2.1,4.8-3.6,6.7c-1.5,1.9-3.4,3.4-5.5,4.4c-2.2,1-4.4,1.5-7.2,1.5
		h-13v-42.1h13c2.6,0,5,0.5,7.2,1.5c2.2,1,3.9,2.6,5.5,4.4s2.7,4.1,3.6,6.7C303.5,553.6,304,556.3,304,559.4z M296,559.4
		c0-2.1-0.2-3.9-0.7-5.6s-1-3.1-1.9-4.3c-0.9-1.2-1.9-2.1-2.9-2.7c-1.2-0.7-2.6-0.9-3.9-0.9h-5.3v27h5.3c1.5,0,2.9-0.3,3.9-0.9
		c1.2-0.7,2.2-1.5,2.9-2.7c0.7-1.2,1.4-2.6,1.9-4.3S296,561.4,296,559.4z"/>
	<path class="st6" d="M341.6,563.5c0.3,0.9,0.5,1.5,0.9,2.4c0.3-0.9,0.5-1.7,0.9-2.4c0.3-0.9,0.5-1.5,0.9-2.4l8.6-21.2
		c0.2-0.3,0.3-0.7,0.5-0.9c0.2-0.2,0.3-0.3,0.5-0.5c0.2-0.2,0.5-0.2,0.7-0.2s0.5,0,0.9,0h6v42.1h-6.8v-24.1c0-1.2,0-2.4,0.2-3.8
		l-8.9,21.6c-0.3,0.7-0.7,1.2-1.2,1.5c-0.5,0.3-1,0.5-1.5,0.5h-1c-0.7,0-1.2-0.2-1.5-0.5c-0.3-0.3-0.9-0.9-1.2-1.5l-8.9-21.7
		c0,0.7,0.2,1.4,0.2,2.1s0,1.2,0,1.9v24.1h-6.8v-42.1h6c0.3,0,0.7,0,0.9,0s0.5,0,0.7,0.2s0.3,0.2,0.5,0.5c0.2,0.2,0.3,0.5,0.5,0.9
		l8.7,21.4C341.1,562,341.3,562.6,341.6,563.5z"/>
	<path class="st6" d="M392.1,538.4v7.5h-13.9v9.7h10.6v7.2h-10.6v10.1h13.9v7.5h-21.7v-42.1L392.1,538.4L392.1,538.4z"/>
	<path class="st6" d="M430.4,559.4c0,3.1-0.3,5.8-1.2,8.4c-0.9,2.6-2.1,4.8-3.6,6.7c-1.5,1.9-3.4,3.4-5.5,4.4
		c-2.2,1-4.4,1.5-7.2,1.5h-13v-42.1h13c2.6,0,5,0.5,7.2,1.5c2.2,1,3.9,2.6,5.5,4.4c1.5,1.9,2.7,4.1,3.6,6.7
		C430.1,553.6,430.4,556.3,430.4,559.4z M422.4,559.4c0-2.1-0.2-3.9-0.7-5.6s-1-3.1-1.9-4.3c-0.9-1.2-1.9-2.1-2.9-2.7
		c-1.2-0.7-2.6-0.9-3.9-0.9h-5.1v27h5.3c1.5,0,2.9-0.3,3.9-0.9c1.2-0.7,2.2-1.5,2.9-2.7c0.7-1.2,1.4-2.6,1.9-4.3
		S422.4,561.4,422.4,559.4z"/>
	<path class="st6" d="M446.1,580.4h-7.9v-42.1h7.9V580.4z"/>
	<path class="st6" d="M478.5,569.7c0.2,0,0.3,0,0.5,0.2c0.2,0.2,0.3,0.2,0.5,0.5l3.1,4.1c-1.4,2.2-3.1,3.9-5.1,5
		c-2.1,1.2-4.4,1.7-7.2,1.7c-2.6,0-4.8-0.5-6.8-1.7s-3.8-2.6-5.1-4.4c-1.4-1.9-2.6-4.1-3.2-6.8c-0.7-2.6-1.2-5.5-1.2-8.6
		c0-3.1,0.5-6,1.4-8.7c0.9-2.6,2.1-5,3.6-6.8c1.5-1.9,3.4-3.4,5.5-4.4c2.2-1,4.6-1.5,7.2-1.5c1.2,0,2.4,0.2,3.6,0.3s2.2,0.7,3.1,1.2
		c1,0.5,1.9,1,2.7,1.7c0.9,0.7,1.5,1.4,2.2,2.2l-2.6,4.4c-0.2,0.3-0.3,0.5-0.7,0.7c-0.2,0.2-0.5,0.3-1,0.3c-0.3,0-0.5,0-0.9-0.2
		c-0.2-0.2-0.5-0.3-0.9-0.5s-0.5-0.5-0.9-0.7c-0.3-0.3-0.7-0.5-1.2-0.7c-0.5-0.2-1-0.3-1.5-0.5c-0.7-0.2-1.4-0.2-2.1-0.2
		c-1.4,0-2.7,0.3-3.9,0.9c-1.2,0.7-2.2,1.5-3.1,2.7c-0.9,1.2-1.5,2.6-1.9,4.3s-0.7,3.6-0.7,5.6c0,2.2,0.2,4.1,0.7,5.8s1,3.1,1.9,4.3
		s1.7,2.1,2.9,2.6s2.2,0.9,3.4,0.9c0.7,0,1.4,0,1.9-0.2c0.5-0.2,1.2-0.2,1.7-0.5c0.5-0.2,1-0.5,1.4-0.9c0.5-0.3,0.9-0.7,1.4-1.2
		c0.2-0.2,0.3-0.3,0.7-0.5C478.1,569.8,478.3,569.7,478.5,569.7z"/>
	<path class="st6" d="M521.1,580.4h-6c-0.7,0-1.2-0.2-1.7-0.5c-0.5-0.3-0.7-0.9-0.9-1.5l-2.1-7.4h-12.8l-2.1,7.4
		c-0.2,0.5-0.5,1-0.9,1.5c-0.5,0.5-1,0.7-1.7,0.7h-6.2l13-42.1h8L521.1,580.4z M499.3,564.4h9.2l-3.1-11.5c-0.2-0.7-0.5-1.5-0.7-2.6
		c-0.3-1-0.5-2.1-0.9-3.2c-0.2,1.2-0.5,2.2-0.7,3.2c-0.3,1-0.5,1.9-0.7,2.6L499.3,564.4z"/>
	<path class="st6" d="M534.9,572.7h12.5v7.9H527v-42.1h7.9L534.9,572.7L534.9,572.7z"/>
</g>
</svg>
